<mxfile host="65bd71144e">
    <diagram id="9PPOLsEQSuX8ClA0UvqM" name="Page-1">
        <mxGraphModel dx="1560" dy="926" grid="1" gridSize="10" guides="1" tooltips="1" connect="1" arrows="1" fold="1" page="1" pageScale="1" pageWidth="1654" pageHeight="1169" math="0" shadow="0">
            <root>
                <mxCell id="0"/>
                <mxCell id="1" parent="0"/>
                <mxCell id="2" value="Alumno" style="swimlane;childLayout=stackLayout;horizontal=1;startSize=50;horizontalStack=0;rounded=1;fontSize=14;fontStyle=0;strokeWidth=2;resizeParent=0;resizeLast=1;shadow=0;dashed=0;align=center;arcSize=4;whiteSpace=wrap;html=1;" vertex="1" parent="1">
                    <mxGeometry x="944" y="920" width="160" height="130" as="geometry"/>
                </mxCell>
                <mxCell id="3" value="Nombre&lt;div&gt;DNI&lt;/div&gt;&lt;div&gt;Fecha Nac.&lt;/div&gt;&lt;div&gt;Direccion&lt;/div&gt;&lt;div&gt;Beca&lt;/div&gt;" style="align=left;strokeColor=none;fillColor=none;spacingLeft=4;fontSize=12;verticalAlign=top;resizable=0;rotatable=0;part=1;html=1;" vertex="1" parent="2">
                    <mxGeometry y="50" width="160" height="80" as="geometry"/>
                </mxCell>
                <mxCell id="5" value="Profesor" style="swimlane;childLayout=stackLayout;horizontal=1;startSize=50;horizontalStack=0;rounded=1;fontSize=14;fontStyle=0;strokeWidth=2;resizeParent=0;resizeLast=1;shadow=0;dashed=0;align=center;arcSize=4;whiteSpace=wrap;html=1;" vertex="1" parent="1">
                    <mxGeometry x="747" y="280" width="160" height="120" as="geometry"/>
                </mxCell>
                <mxCell id="6" value="ID&lt;div&gt;Nombre&lt;/div&gt;&lt;div&gt;ID departamento&lt;/div&gt;" style="align=left;strokeColor=none;fillColor=none;spacingLeft=4;fontSize=12;verticalAlign=top;resizable=0;rotatable=0;part=1;html=1;" vertex="1" parent="5">
                    <mxGeometry y="50" width="160" height="70" as="geometry"/>
                </mxCell>
                <mxCell id="7" value="Departamento" style="swimlane;childLayout=stackLayout;horizontal=1;startSize=50;horizontalStack=0;rounded=1;fontSize=14;fontStyle=0;strokeWidth=2;resizeParent=0;resizeLast=1;shadow=0;dashed=0;align=center;arcSize=4;whiteSpace=wrap;html=1;" vertex="1" parent="1">
                    <mxGeometry x="747" y="40" width="160" height="120" as="geometry"/>
                </mxCell>
                <mxCell id="8" value="ID&amp;nbsp;&lt;div&gt;Director&lt;/div&gt;" style="align=left;strokeColor=none;fillColor=none;spacingLeft=4;fontSize=12;verticalAlign=top;resizable=0;rotatable=0;part=1;html=1;" vertex="1" parent="7">
                    <mxGeometry y="50" width="160" height="70" as="geometry"/>
                </mxCell>
                <mxCell id="10" value="Grupo" style="swimlane;childLayout=stackLayout;horizontal=1;startSize=50;horizontalStack=0;rounded=1;fontSize=14;fontStyle=0;strokeWidth=2;resizeParent=0;resizeLast=1;shadow=0;dashed=0;align=center;arcSize=4;whiteSpace=wrap;html=1;" vertex="1" parent="1">
                    <mxGeometry x="747" y="585" width="160" height="140" as="geometry"/>
                </mxCell>
                <mxCell id="11" value="Teoria&lt;div&gt;&lt;span style=&quot;background-color: transparent;&quot;&gt;&lt;font color=&quot;#121212&quot;&gt;horas clase&lt;/font&gt;&lt;/span&gt;&lt;/div&gt;&lt;div&gt;&lt;span style=&quot;color: rgb(192, 192, 192); background-color: transparent;&quot;&gt;practica&lt;/span&gt;&lt;/div&gt;&lt;div&gt;taller&lt;/div&gt;" style="align=left;strokeColor=none;fillColor=none;spacingLeft=4;fontSize=12;verticalAlign=top;resizable=0;rotatable=0;part=1;html=1;" vertex="1" parent="10">
                    <mxGeometry y="50" width="160" height="90" as="geometry"/>
                </mxCell>
                <mxCell id="12" value="Asignatura" style="swimlane;childLayout=stackLayout;horizontal=1;startSize=50;horizontalStack=0;rounded=1;fontSize=14;fontStyle=0;strokeWidth=2;resizeParent=0;resizeLast=1;shadow=0;dashed=0;align=center;arcSize=4;whiteSpace=wrap;html=1;" vertex="1" parent="1">
                    <mxGeometry x="550" y="920" width="160" height="130" as="geometry"/>
                </mxCell>
                <mxCell id="13" value="Id&lt;div&gt;Nombre&lt;/div&gt;&lt;div&gt;Credito&lt;/div&gt;&lt;div&gt;Caracter&lt;/div&gt;&lt;div&gt;Curso&lt;/div&gt;" style="align=left;strokeColor=none;fillColor=none;spacingLeft=4;fontSize=12;verticalAlign=top;resizable=0;rotatable=0;part=1;html=1;" vertex="1" parent="12">
                    <mxGeometry y="50" width="160" height="80" as="geometry"/>
                </mxCell>
                <mxCell id="14" value="tiene" style="shape=rhombus;perimeter=rhombusPerimeter;whiteSpace=wrap;html=1;align=center;" vertex="1" parent="1">
                    <mxGeometry x="767" y="190" width="120" height="60" as="geometry"/>
                </mxCell>
                <mxCell id="16" value="Imparte" style="shape=rhombus;perimeter=rhombusPerimeter;whiteSpace=wrap;html=1;align=center;" vertex="1" parent="1">
                    <mxGeometry x="350" y="540" width="120" height="60" as="geometry"/>
                </mxCell>
                <mxCell id="17" value="Tiene" style="shape=rhombus;perimeter=rhombusPerimeter;whiteSpace=wrap;html=1;align=center;" vertex="1" parent="1">
                    <mxGeometry x="764" y="765" width="120" height="60" as="geometry"/>
                </mxCell>
                <mxCell id="18" value="" style="endArrow=none;html=1;entryX=0.5;entryY=1;entryDx=0;entryDy=0;exitX=0.5;exitY=0;exitDx=0;exitDy=0;" edge="1" parent="1" source="14" target="8">
                    <mxGeometry width="50" height="50" relative="1" as="geometry">
                        <mxPoint x="780" y="440" as="sourcePoint"/>
                        <mxPoint x="830" y="390" as="targetPoint"/>
                    </mxGeometry>
                </mxCell>
                <mxCell id="19" value="" style="endArrow=none;html=1;entryX=0.5;entryY=0;entryDx=0;entryDy=0;exitX=0.5;exitY=1;exitDx=0;exitDy=0;" edge="1" parent="1" source="14" target="5">
                    <mxGeometry width="50" height="50" relative="1" as="geometry">
                        <mxPoint x="837" y="200" as="sourcePoint"/>
                        <mxPoint x="837" y="170" as="targetPoint"/>
                    </mxGeometry>
                </mxCell>
                <mxCell id="21" value="" style="endArrow=none;html=1;entryX=0;entryY=0.25;entryDx=0;entryDy=0;exitX=0.5;exitY=0;exitDx=0;exitDy=0;" edge="1" parent="1" source="16" target="6">
                    <mxGeometry width="50" height="50" relative="1" as="geometry">
                        <mxPoint x="650" y="445" as="sourcePoint"/>
                        <mxPoint x="757" y="410" as="targetPoint"/>
                    </mxGeometry>
                </mxCell>
                <mxCell id="24" value="" style="endArrow=none;html=1;entryX=0.5;entryY=1;entryDx=0;entryDy=0;exitX=0.5;exitY=0;exitDx=0;exitDy=0;" edge="1" parent="1" source="12" target="16">
                    <mxGeometry width="50" height="50" relative="1" as="geometry">
                        <mxPoint x="510" y="530" as="sourcePoint"/>
                        <mxPoint x="590" y="475" as="targetPoint"/>
                    </mxGeometry>
                </mxCell>
                <mxCell id="26" value="1" style="text;html=1;align=center;verticalAlign=middle;resizable=0;points=[];autosize=1;strokeColor=none;fillColor=none;" vertex="1" parent="1">
                    <mxGeometry x="830" y="250" width="30" height="30" as="geometry"/>
                </mxCell>
                <mxCell id="27" value="1" style="text;html=1;align=center;verticalAlign=middle;resizable=0;points=[];autosize=1;strokeColor=none;fillColor=none;" vertex="1" parent="1">
                    <mxGeometry x="827" y="160" width="30" height="30" as="geometry"/>
                </mxCell>
                <mxCell id="30" value="M" style="text;html=1;align=center;verticalAlign=middle;resizable=0;points=[];autosize=1;strokeColor=none;fillColor=none;" vertex="1" parent="1">
                    <mxGeometry x="660" y="890" width="30" height="30" as="geometry"/>
                </mxCell>
                <mxCell id="31" value="1" style="text;html=1;align=center;verticalAlign=middle;resizable=0;points=[];autosize=1;strokeColor=none;fillColor=none;" vertex="1" parent="1">
                    <mxGeometry x="710" y="330" width="30" height="30" as="geometry"/>
                </mxCell>
                <mxCell id="34" value="" style="endArrow=none;html=1;exitX=1;exitY=0;exitDx=0;exitDy=0;entryX=0;entryY=1;entryDx=0;entryDy=0;" edge="1" parent="1" source="12" target="17">
                    <mxGeometry width="50" height="50" relative="1" as="geometry">
                        <mxPoint x="824" y="665" as="sourcePoint"/>
                        <mxPoint x="874" y="615" as="targetPoint"/>
                    </mxGeometry>
                </mxCell>
                <mxCell id="35" value="" style="endArrow=none;html=1;exitX=1;exitY=1;exitDx=0;exitDy=0;entryX=0;entryY=0;entryDx=0;entryDy=0;" edge="1" parent="1" source="17" target="2">
                    <mxGeometry width="50" height="50" relative="1" as="geometry">
                        <mxPoint x="751" y="865" as="sourcePoint"/>
                        <mxPoint x="804" y="820" as="targetPoint"/>
                    </mxGeometry>
                </mxCell>
                <mxCell id="36" value="" style="endArrow=none;html=1;exitX=0.5;exitY=1;exitDx=0;exitDy=0;entryX=0.5;entryY=0;entryDx=0;entryDy=0;" edge="1" parent="1" source="11" target="17">
                    <mxGeometry width="50" height="50" relative="1" as="geometry">
                        <mxPoint x="864" y="820" as="sourcePoint"/>
                        <mxPoint x="924" y="865" as="targetPoint"/>
                    </mxGeometry>
                </mxCell>
                <mxCell id="37" value="M" style="text;html=1;align=center;verticalAlign=middle;resizable=0;points=[];autosize=1;strokeColor=none;fillColor=none;" vertex="1" parent="1">
                    <mxGeometry x="944" y="890" width="30" height="30" as="geometry"/>
                </mxCell>
                <mxCell id="38" value="Tiene" style="shape=rhombus;perimeter=rhombusPerimeter;whiteSpace=wrap;html=1;align=center;" vertex="1" parent="1">
                    <mxGeometry x="767" y="450" width="120" height="60" as="geometry"/>
                </mxCell>
                <mxCell id="39" value="" style="endArrow=none;html=1;exitX=0.5;exitY=1;exitDx=0;exitDy=0;entryX=0.5;entryY=0;entryDx=0;entryDy=0;" edge="1" parent="1" source="6" target="38">
                    <mxGeometry width="50" height="50" relative="1" as="geometry">
                        <mxPoint x="834" y="735" as="sourcePoint"/>
                        <mxPoint x="834" y="775" as="targetPoint"/>
                    </mxGeometry>
                </mxCell>
                <mxCell id="40" value="" style="endArrow=none;html=1;exitX=0.5;exitY=0;exitDx=0;exitDy=0;entryX=0.5;entryY=1;entryDx=0;entryDy=0;" edge="1" parent="1" source="10" target="38">
                    <mxGeometry width="50" height="50" relative="1" as="geometry">
                        <mxPoint x="837" y="410" as="sourcePoint"/>
                        <mxPoint x="837" y="460" as="targetPoint"/>
                    </mxGeometry>
                </mxCell>
            </root>
        </mxGraphModel>
    </diagram>
</mxfile>